<svg xmlns="http://www.w3.org/2000/svg" xmlns:xlink="http://www.w3.org/1999/xlink" width="2000" zoomAndPan="magnify" viewBox="0 0 1500 1499.999933" height="2000" preserveAspectRatio="xMidYMid meet" version="1.0"><defs><g/><clipPath id="242b1bb709"><path d="M 126 656.113281 L 235 656.113281 L 235 752 L 126 752 Z M 126 656.113281 " clip-rule="nonzero"/></clipPath><clipPath id="95d237d3e9"><path d="M 104.699219 672 L 247 672 L 247 875 L 104.699219 875 Z M 104.699219 672 " clip-rule="nonzero"/></clipPath><clipPath id="027d093dd5"><path d="M 129 787 L 304.949219 787 L 304.949219 894.613281 L 129 894.613281 Z M 129 787 " clip-rule="nonzero"/></clipPath></defs><g clip-path="url(#242b1bb709)"><path fill="#000000" d="M 226.929688 656.117188 C 213.707031 656.117188 188.976562 656.902344 180.796875 656.902344 C 171.640625 656.902344 150.289062 656.117188 134.375 656.117188 C 129.28125 656.117188 126.878906 656.644531 126.878906 658.441406 C 126.878906 660.277344 128.9375 660.800781 132.660156 660.800781 C 137.066406 660.800781 141.128906 661.066406 143.824219 661.550781 C 151.269531 662.75 154.941406 665 156.800781 668.96875 C 156.851562 669.046875 156.898438 669.15625 156.949219 669.269531 C 157.632812 670.84375 158.027344 672.714844 158.269531 674.851562 C 158.320312 675.117188 158.320312 675.414062 158.367188 675.714844 L 158.417969 676.652344 C 158.5625 678.863281 158.710938 683.472656 158.808594 689.015625 L 158.855469 696.511719 C 158.855469 696.546875 158.855469 696.546875 158.855469 696.585938 C 159.003906 704.378906 159.050781 713.746094 159.050781 723.863281 C 159.050781 723.902344 159.050781 723.902344 159.050781 723.902344 C 160.519531 725.398438 162.332031 727.011719 164.390625 728.699219 C 169.335938 732.667969 176.191406 737.128906 185.839844 742.785156 L 195.292969 748.21875 C 197.449219 749.457031 199.554688 750.65625 201.511719 751.851562 C 201.511719 728.769531 201.558594 705.5 201.753906 690.738281 L 201.753906 690.4375 L 201.902344 684.78125 C 201.949219 680.921875 202.046875 678.035156 202.195312 676.3125 C 202.292969 675.375 202.390625 674.550781 202.488281 673.839844 C 202.539062 673.390625 202.585938 672.980469 202.683594 672.566406 C 202.734375 672.191406 202.78125 671.894531 202.878906 671.554688 L 202.929688 671.441406 C 202.976562 671.144531 203.027344 670.882812 203.125 670.582031 L 203.859375 668.484375 C 204.25 667.546875 204.742188 666.722656 205.277344 666.011719 L 205.328125 666.011719 C 207.238281 663.648438 210.175781 662.226562 214.730469 661.550781 C 218.796875 661.066406 224.230469 660.800781 227.953125 660.800781 C 232.019531 660.800781 234.074219 660.277344 234.074219 658.441406 C 234.082031 656.640625 231.679688 656.117188 226.929688 656.117188 Z M 226.929688 656.117188 " fill-opacity="1" fill-rule="nonzero"/></g><g clip-path="url(#95d237d3e9)"><path fill="#8f7733" d="M 235.304688 675.640625 C 229.527344 674.441406 221.398438 672.902344 210.230469 672.042969 C 210.183594 672.191406 210.183594 672.339844 210.132812 672.492188 C 209.886719 673.617188 209.691406 674.890625 209.546875 676.726562 C 209.449219 677.699219 209.300781 679.875 209.253906 684.894531 L 209.203125 687.066406 C 215.914062 689.726562 220.027344 693.214844 222.769531 695.875 C 229.871094 702.617188 231.585938 710.671875 231.585938 712.996094 C 231.585938 716.109375 232.566406 717.679688 234.964844 717.679688 C 237.65625 717.679688 238.6875 715.582031 238.6875 709.886719 C 238.6875 689.652344 240.058594 682.121094 240.058594 678.75 C 240.054688 676.914062 238.339844 676.164062 235.304688 675.640625 Z M 116.941406 836.011719 C 115.226562 831.589844 113.855469 826.15625 113.855469 822.78125 C 113.855469 820.683594 113.511719 818.359375 110.476562 818.359375 C 107.78125 818.359375 106.753906 821.207031 106.410156 825.105469 C 106.066406 829.265625 104.695312 844.851562 104.695312 859.089844 C 104.695312 864.824219 105.726562 866.097656 111.160156 867.933594 C 122.964844 871.941406 135.15625 873.851562 149.800781 874.453125 C 149.847656 874.265625 149.898438 874.039062 149.945312 873.8125 C 149.898438 873.777344 149.996094 873.476562 150.042969 873.214844 C 150.53125 870.03125 150.875 866.394531 151.121094 861.75 C 151.121094 861.527344 151.167969 861.261719 151.167969 861.039062 C 135.792969 858.34375 122.667969 850.773438 116.941406 836.011719 Z M 208.859375 763.804688 C 206.558594 762.269531 204.109375 760.65625 201.515625 759.046875 C 198.183594 756.984375 194.660156 754.886719 190.890625 752.714844 L 181.390625 747.242188 C 171.742188 741.625 164.445312 736.863281 159.058594 732.554688 C 156.070312 730.15625 153.621094 727.871094 151.714844 725.699219 C 147.109375 720.378906 145.445312 715.433594 145.445312 709.886719 C 145.445312 704.078125 147.550781 698.910156 151.519531 694.710938 L 151.46875 689.09375 C 151.371094 683.660156 151.226562 679.125 151.078125 676.914062 C 126.542969 684.859375 111.851562 700.671875 111.851562 720.265625 C 111.851562 739.226562 122.332031 755.863281 151.765625 775.3125 C 154.066406 776.847656 156.515625 778.382812 159.109375 779.957031 C 160.089844 780.554688 161.070312 781.15625 162.046875 781.757812 L 177.621094 791.125 C 180.265625 792.699219 182.710938 794.195312 184.964844 795.769531 C 185.015625 795.769531 185.0625 795.804688 185.113281 795.84375 C 185.648438 796.21875 186.191406 796.59375 186.726562 796.96875 C 187.804688 797.679688 188.882812 798.429688 189.863281 799.179688 C 190.398438 799.554688 190.941406 799.964844 191.429688 800.339844 C 194.269531 802.515625 196.667969 804.574219 198.773438 806.597656 C 199.066406 806.859375 199.410156 807.160156 199.703125 807.535156 C 200.339844 808.171875 200.976562 808.769531 201.515625 809.410156 C 201.710938 809.597656 201.859375 809.820312 202.007812 810.007812 C 202.300781 810.34375 202.644531 810.679688 202.9375 811.054688 C 203.230469 811.394531 203.527344 811.730469 203.773438 812.105469 C 203.96875 812.292969 204.113281 812.480469 204.210938 812.667969 C 204.261719 812.742188 204.308594 812.855469 204.40625 812.929688 C 204.554688 813.082031 204.652344 813.230469 204.75 813.378906 C 205.191406 813.941406 205.582031 814.542969 205.925781 815.105469 C 205.972656 815.140625 206.023438 815.214844 206.023438 815.253906 C 206.660156 816.226562 207.199219 817.164062 207.636719 818.101562 C 207.6875 818.214844 207.734375 818.324219 207.785156 818.441406 C 208.078125 819.039062 208.375 819.601562 208.570312 820.203125 L 208.863281 820.988281 C 210.378906 824.882812 210.871094 828.746094 210.871094 832.640625 C 210.871094 835.453125 210.234375 838.335938 209.007812 841.148438 C 209.007812 841.183594 209.007812 841.183594 209.007812 841.183594 C 209.058594 844.519531 209.15625 847.589844 209.300781 850.4375 C 209.644531 857.148438 210.332031 862.132812 211.261719 865.578125 C 212.386719 865.089844 213.464844 864.605469 214.589844 864.042969 C 239.027344 851.863281 246.472656 833.953125 246.472656 818.890625 C 246.46875 798.242188 236.28125 782.316406 208.859375 763.804688 Z M 208.859375 763.804688 " fill-opacity="1" fill-rule="nonzero"/></g><g clip-path="url(#027d093dd5)"><path fill="#000000" d="M 304.597656 857.445312 C 304.597656 860.332031 302.25 879.777344 299.503906 887.308594 C 297.496094 893.003906 295.785156 894.316406 278.152344 894.316406 C 253.714844 894.316406 236.085938 893.789062 220.855469 893.527344 C 205.578125 893.003906 193.382812 892.742188 179.472656 892.742188 C 175.753906 892.742188 168.257812 892.742188 160.128906 893.003906 C 152.34375 893.003906 143.53125 893.53125 136.722656 893.53125 C 132.3125 893.53125 129.964844 892.746094 129.964844 890.945312 C 129.964844 889.636719 131.285156 888.847656 135.351562 888.847656 C 140.445312 888.847656 144.507812 888.363281 147.59375 887.835938 C 152.148438 887.125 154.402344 884.316406 155.820312 880.265625 L 155.820312 880.230469 C 156.410156 878.542969 156.800781 876.707031 157.191406 874.648438 C 157.242188 874.273438 157.339844 873.933594 157.386719 873.558594 C 157.878906 870.414062 158.222656 866.515625 158.464844 861.980469 C 158.5625 860.21875 158.660156 858.308594 158.710938 856.363281 C 159.101562 845.796875 159.101562 832.644531 159.101562 818.292969 L 159.101562 787.191406 L 173.105469 795.546875 C 175.652344 797.082031 178.003906 798.546875 180.207031 800.042969 C 181.285156 800.757812 182.3125 801.46875 183.292969 802.179688 C 184.320312 802.894531 185.300781 803.601562 186.230469 804.316406 C 188.777344 806.265625 191.027344 808.175781 192.988281 810.085938 C 193.578125 810.609375 194.113281 811.171875 194.554688 811.699219 C 195.09375 812.222656 195.535156 812.710938 195.976562 813.234375 C 196.464844 813.71875 196.90625 814.246094 197.246094 814.734375 C 197.640625 815.257812 198.03125 815.746094 198.375 816.230469 C 199.746094 818.066406 200.773438 819.941406 201.507812 821.816406 C 201.507812 828.632812 201.507812 834.742188 201.605469 840.210938 C 201.703125 843.996094 201.800781 847.480469 201.949219 850.628906 C 202.339844 858.308594 203.125 864.15625 204.542969 868.238281 C 205.328125 870.449219 206.355469 872.136719 207.628906 873.300781 C 207.921875 873.597656 208.265625 873.859375 208.609375 874.085938 C 214.386719 877.945312 223.203125 879.78125 249.648438 879.78125 C 267.621094 879.78125 280.890625 879.519531 289.363281 872.511719 C 293.429688 869.136719 297.492188 861.871094 298.179688 856.960938 C 298.519531 854.601562 299.207031 853.066406 301.898438 853.066406 C 304.257812 853.0625 304.597656 854.332031 304.597656 857.445312 Z M 304.597656 857.445312 " fill-opacity="1" fill-rule="nonzero"/></g><g fill="#000000" fill-opacity="1"><g transform="translate(347.989047, 785.511704)"><g><path d="M 52.453125 -106.40625 L 52.453125 -103.390625 C 49.046875 -103.296875 46.460938 -102.921875 44.703125 -102.265625 C 42.953125 -101.617188 41.773438 -100.414062 41.171875 -98.65625 C 40.578125 -96.90625 40.28125 -94.175781 40.28125 -90.46875 L 40.28125 -14.125 C 40.28125 -11.019531 40.503906 -8.710938 40.953125 -7.203125 C 41.398438 -5.703125 42.300781 -4.703125 43.65625 -4.203125 C 45.007812 -3.703125 47.039062 -3.453125 49.75 -3.453125 L 57.109375 -3.453125 C 60.515625 -3.453125 63.71875 -4.253906 66.71875 -5.859375 C 69.726562 -7.460938 72.4375 -9.738281 74.84375 -12.6875 C 77.25 -15.644531 79.25 -19.175781 80.84375 -23.28125 C 82.445312 -27.394531 83.648438 -31.957031 84.453125 -36.96875 L 87.921875 -36.96875 C 87.617188 -33.5625 87.46875 -29.15625 87.46875 -23.75 C 87.46875 -21.4375 87.515625 -18.078125 87.609375 -13.671875 C 87.710938 -9.265625 88.015625 -4.707031 88.515625 0 C 83.398438 -0.195312 77.632812 -0.320312 71.21875 -0.375 C 64.8125 -0.425781 59.101562 -0.453125 54.09375 -0.453125 C 51.59375 -0.453125 48.390625 -0.453125 44.484375 -0.453125 C 40.578125 -0.453125 36.367188 -0.425781 31.859375 -0.375 C 27.347656 -0.320312 22.785156 -0.269531 18.171875 -0.21875 C 13.566406 -0.175781 9.210938 -0.101562 5.109375 0 L 5.109375 -3 C 8.316406 -3.207031 10.722656 -3.609375 12.328125 -4.203125 C 13.929688 -4.804688 15.003906 -6.007812 15.546875 -7.8125 C 16.097656 -9.613281 16.375 -12.320312 16.375 -15.9375 L 16.375 -90.46875 C 16.375 -94.175781 16.097656 -96.90625 15.546875 -98.65625 C 15.003906 -100.414062 13.90625 -101.617188 12.25 -102.265625 C 10.59375 -102.921875 8.210938 -103.296875 5.109375 -103.390625 L 5.109375 -106.40625 C 7.609375 -106.300781 10.988281 -106.195312 15.25 -106.09375 C 19.507812 -106 24.046875 -105.953125 28.859375 -105.953125 C 33.265625 -105.953125 37.59375 -106 41.84375 -106.09375 C 46.101562 -106.195312 49.640625 -106.300781 52.453125 -106.40625 Z M 52.453125 -106.40625 "/></g></g></g><g fill="#000000" fill-opacity="1"><g transform="translate(439.810916, 785.511704)"><g><path d="M 42.375 -79.796875 C 51.195312 -79.796875 58.109375 -77.191406 63.109375 -71.984375 C 68.117188 -66.773438 70.625 -58.257812 70.625 -46.4375 L 21.1875 -46.4375 L 20.890625 -49.296875 L 51.703125 -49.296875 C 51.796875 -54.203125 51.492188 -58.734375 50.796875 -62.890625 C 50.097656 -67.046875 48.992188 -70.375 47.484375 -72.875 C 45.984375 -75.382812 43.984375 -76.640625 41.484375 -76.640625 C 37.972656 -76.640625 34.988281 -74.4375 32.53125 -70.03125 C 30.082031 -65.625 28.609375 -58.3125 28.109375 -48.09375 L 28.546875 -47.1875 C 28.453125 -45.988281 28.378906 -44.738281 28.328125 -43.4375 C 28.273438 -42.132812 28.25 -40.78125 28.25 -39.375 C 28.25 -32.457031 29.222656 -26.84375 31.171875 -22.53125 C 33.128906 -18.226562 35.609375 -15.097656 38.609375 -13.140625 C 41.617188 -11.191406 44.679688 -10.21875 47.796875 -10.21875 C 49.898438 -10.21875 52.078125 -10.539062 54.328125 -11.1875 C 56.578125 -11.84375 58.851562 -13.046875 61.15625 -14.796875 C 63.46875 -16.554688 65.625 -19.035156 67.625 -22.234375 L 70.328125 -21.34375 C 69.128906 -17.53125 67.226562 -13.820312 64.625 -10.21875 C 62.019531 -6.613281 58.710938 -3.65625 54.703125 -1.34375 C 50.691406 0.957031 45.882812 2.109375 40.28125 2.109375 C 33.46875 2.109375 27.453125 0.65625 22.234375 -2.25 C 17.023438 -5.15625 12.941406 -9.5625 9.984375 -15.46875 C 7.035156 -21.382812 5.5625 -28.898438 5.5625 -38.015625 C 5.5625 -47.335938 7.140625 -55.101562 10.296875 -61.3125 C 13.453125 -67.519531 17.804688 -72.148438 23.359375 -75.203125 C 28.921875 -78.265625 35.257812 -79.796875 42.375 -79.796875 Z M 42.375 -79.796875 "/></g></g></g><g fill="#000000" fill-opacity="1"><g transform="translate(515.552693, 785.511704)"><g><path d="M 24.34375 1.046875 C 19.832031 1.046875 16.070312 0.195312 13.0625 -1.5 C 10.0625 -3.207031 7.859375 -5.488281 6.453125 -8.34375 C 5.054688 -11.195312 4.359375 -14.328125 4.359375 -17.734375 C 4.359375 -22.035156 5.332031 -25.539062 7.28125 -28.25 C 9.238281 -30.957031 11.769531 -33.160156 14.875 -34.859375 C 17.976562 -36.566406 21.257812 -37.96875 24.71875 -39.0625 C 28.175781 -40.164062 31.484375 -41.242188 34.640625 -42.296875 C 37.796875 -43.347656 40.347656 -44.597656 42.296875 -46.046875 C 44.253906 -47.503906 45.234375 -49.390625 45.234375 -51.703125 L 45.234375 -63.421875 C 45.234375 -66.023438 44.804688 -68.351562 43.953125 -70.40625 C 43.109375 -72.457031 41.804688 -74.035156 40.046875 -75.140625 C 38.296875 -76.242188 36.019531 -76.796875 33.21875 -76.796875 C 31.207031 -76.796875 29.195312 -76.519531 27.1875 -75.96875 C 25.1875 -75.414062 23.535156 -74.488281 22.234375 -73.1875 C 25.046875 -72.1875 27.226562 -70.65625 28.78125 -68.59375 C 30.332031 -66.539062 31.109375 -64.210938 31.109375 -61.609375 C 31.109375 -58.203125 29.929688 -55.5 27.578125 -53.5 C 25.222656 -51.5 22.441406 -50.5 19.234375 -50.5 C 15.628906 -50.5 12.898438 -51.625 11.046875 -53.875 C 9.191406 -56.125 8.265625 -58.851562 8.265625 -62.0625 C 8.265625 -64.96875 8.988281 -67.375 10.4375 -69.28125 C 11.894531 -71.1875 13.925781 -72.988281 16.53125 -74.6875 C 19.332031 -76.289062 22.710938 -77.539062 26.671875 -78.4375 C 30.628906 -79.34375 34.914062 -79.796875 39.53125 -79.796875 C 44.132812 -79.796875 48.289062 -79.316406 52 -78.359375 C 55.707031 -77.410156 58.8125 -75.6875 61.3125 -73.1875 C 63.613281 -70.882812 65.113281 -68.050781 65.8125 -64.6875 C 66.519531 -61.332031 66.875 -57.101562 66.875 -52 L 66.875 -11.125 C 66.875 -8.613281 67.125 -6.882812 67.625 -5.9375 C 68.125 -4.988281 68.976562 -4.515625 70.1875 -4.515625 C 71.082031 -4.515625 71.957031 -4.765625 72.8125 -5.265625 C 73.664062 -5.765625 74.59375 -6.363281 75.59375 -7.0625 L 77.09375 -4.515625 C 74.988281 -2.703125 72.554688 -1.320312 69.796875 -0.375 C 67.046875 0.570312 63.96875 1.046875 60.5625 1.046875 C 56.851562 1.046875 53.894531 0.519531 51.6875 -0.53125 C 49.488281 -1.582031 47.910156 -3.007812 46.953125 -4.8125 C 46.003906 -6.613281 45.53125 -8.71875 45.53125 -11.125 C 43.125 -7.3125 40.21875 -4.328125 36.8125 -2.171875 C 33.40625 -0.0234375 29.25 1.046875 24.34375 1.046875 Z M 35.015625 -8.5625 C 37.015625 -8.5625 38.84375 -9.035156 40.5 -9.984375 C 42.15625 -10.941406 43.734375 -12.523438 45.234375 -14.734375 L 45.234375 -45.53125 C 44.328125 -44.03125 43.070312 -42.675781 41.46875 -41.46875 C 39.875 -40.269531 38.171875 -39.046875 36.359375 -37.796875 C 34.554688 -36.546875 32.828125 -35.164062 31.171875 -33.65625 C 29.523438 -32.15625 28.203125 -30.300781 27.203125 -28.09375 C 26.203125 -25.894531 25.703125 -23.242188 25.703125 -20.140625 C 25.703125 -16.234375 26.550781 -13.328125 28.25 -11.421875 C 29.957031 -9.515625 32.210938 -8.5625 35.015625 -8.5625 Z M 35.015625 -8.5625 "/></g></g></g><g fill="#000000" fill-opacity="1"><g transform="translate(593.39842, 785.511704)"><g><path d="M 77.546875 -117.671875 L 77.546875 -16.53125 C 77.546875 -12.019531 78.242188 -8.6875 79.640625 -6.53125 C 81.046875 -4.382812 83.550781 -3.3125 87.15625 -3.3125 L 87.15625 -0.15625 C 84.050781 -0.445312 80.945312 -0.59375 77.84375 -0.59375 C 73.632812 -0.59375 69.703125 -0.441406 66.046875 -0.140625 C 62.390625 0.148438 59.007812 0.695312 55.90625 1.5 L 55.90625 -99.640625 C 55.90625 -104.148438 55.226562 -107.476562 53.875 -109.625 C 52.519531 -111.78125 49.988281 -112.859375 46.28125 -112.859375 L 46.28125 -116.015625 C 49.488281 -115.710938 52.597656 -115.5625 55.609375 -115.5625 C 59.710938 -115.5625 63.617188 -115.738281 67.328125 -116.09375 C 71.035156 -116.445312 74.441406 -116.972656 77.546875 -117.671875 Z M 39.21875 -79.796875 C 43.625 -79.796875 47.503906 -79.066406 50.859375 -77.609375 C 54.222656 -76.160156 56.859375 -73.734375 58.765625 -70.328125 L 56.953125 -68.671875 C 55.648438 -71.078125 53.921875 -72.804688 51.765625 -73.859375 C 49.617188 -74.910156 47.34375 -75.4375 44.9375 -75.4375 C 39.820312 -75.4375 35.757812 -72.457031 32.75 -66.5 C 29.75 -60.539062 28.300781 -51.347656 28.40625 -38.921875 C 28.40625 -30.410156 28.976562 -23.625 30.125 -18.5625 C 31.28125 -13.5 32.9375 -9.863281 35.09375 -7.65625 C 37.25 -5.457031 39.726562 -4.359375 42.53125 -4.359375 C 45.9375 -4.359375 48.988281 -5.707031 51.6875 -8.40625 C 54.394531 -11.113281 55.851562 -14.773438 56.0625 -19.390625 L 56.8125 -14.125 C 55.300781 -8.8125 52.867188 -4.773438 49.515625 -2.015625 C 46.160156 0.734375 41.78125 2.109375 36.375 2.109375 C 30.457031 2.109375 25.171875 0.65625 20.515625 -2.25 C 15.859375 -5.15625 12.222656 -9.640625 9.609375 -15.703125 C 7.003906 -21.765625 5.703125 -29.601562 5.703125 -39.21875 C 5.703125 -48.34375 7.15625 -55.882812 10.0625 -61.84375 C 12.96875 -67.800781 16.953125 -72.28125 22.015625 -75.28125 C 27.078125 -78.289062 32.8125 -79.796875 39.21875 -79.796875 Z M 39.21875 -79.796875 "/></g></g></g><g fill="#000000" fill-opacity="1"><g transform="translate(683.266622, 785.511704)"><g/></g></g><g fill="#8f7733" fill-opacity="1"><g transform="translate(718.2898, 785.511704)"><g><path d="M 42.6875 -108.359375 C 48.59375 -108.359375 53.148438 -107.726562 56.359375 -106.46875 C 59.566406 -105.21875 62.320312 -103.890625 64.625 -102.484375 C 65.820312 -101.785156 66.796875 -101.257812 67.546875 -100.90625 C 68.296875 -100.5625 69.023438 -100.390625 69.734375 -100.390625 C 70.734375 -100.390625 71.457031 -100.9375 71.90625 -102.03125 C 72.351562 -103.132812 72.726562 -104.789062 73.03125 -107 L 76.5 -107 C 76.394531 -105.09375 76.265625 -102.8125 76.109375 -100.15625 C 75.960938 -97.507812 75.863281 -94.03125 75.8125 -89.71875 C 75.757812 -85.40625 75.734375 -79.742188 75.734375 -72.734375 L 72.28125 -72.734375 C 71.882812 -77.941406 70.679688 -83 68.671875 -87.90625 C 66.671875 -92.820312 63.84375 -96.859375 60.1875 -100.015625 C 56.53125 -103.171875 52.046875 -104.75 46.734375 -104.75 C 41.929688 -104.75 37.972656 -103.394531 34.859375 -100.6875 C 31.753906 -97.976562 30.203125 -94.222656 30.203125 -89.421875 C 30.203125 -85.410156 31.203125 -81.976562 33.203125 -79.125 C 35.210938 -76.269531 38.144531 -73.488281 42 -70.78125 C 45.863281 -68.070312 50.550781 -64.816406 56.0625 -61.015625 C 60.863281 -57.910156 65.164062 -54.800781 68.96875 -51.6875 C 72.78125 -48.582031 75.835938 -45.078125 78.140625 -41.171875 C 80.453125 -37.265625 81.609375 -32.609375 81.609375 -27.203125 C 81.609375 -20.585938 79.878906 -15.125 76.421875 -10.8125 C 72.960938 -6.507812 68.425781 -3.28125 62.8125 -1.125 C 57.207031 1.03125 51.046875 2.109375 44.328125 2.109375 C 38.117188 2.109375 33.160156 1.503906 29.453125 0.296875 C 25.742188 -0.898438 22.640625 -2.148438 20.140625 -3.453125 C 17.929688 -4.859375 16.226562 -5.5625 15.03125 -5.5625 C 14.03125 -5.5625 13.300781 -5.007812 12.84375 -3.90625 C 12.394531 -2.800781 12.019531 -1.148438 11.71875 1.046875 L 8.265625 1.046875 C 8.460938 -1.359375 8.585938 -4.160156 8.640625 -7.359375 C 8.691406 -10.566406 8.738281 -14.75 8.78125 -19.90625 C 8.832031 -25.070312 8.859375 -31.613281 8.859375 -39.53125 L 12.328125 -39.53125 C 12.722656 -32.914062 13.847656 -26.726562 15.703125 -20.96875 C 17.554688 -15.207031 20.410156 -10.570312 24.265625 -7.0625 C 28.128906 -3.550781 33.265625 -1.796875 39.671875 -1.796875 C 43.179688 -1.796875 46.3125 -2.421875 49.0625 -3.671875 C 51.820312 -4.929688 54.050781 -6.8125 55.75 -9.3125 C 57.457031 -11.820312 58.3125 -14.929688 58.3125 -18.640625 C 58.3125 -22.847656 57.332031 -26.503906 55.375 -29.609375 C 53.425781 -32.710938 50.769531 -35.613281 47.40625 -38.3125 C 44.050781 -41.019531 40.171875 -43.78125 35.765625 -46.59375 C 31.054688 -49.695312 26.644531 -52.800781 22.53125 -55.90625 C 18.425781 -59.007812 15.144531 -62.5625 12.6875 -66.5625 C 10.238281 -70.570312 9.015625 -75.332031 9.015625 -80.84375 C 9.015625 -87.15625 10.59375 -92.335938 13.75 -96.390625 C 16.90625 -100.453125 21.0625 -103.460938 26.21875 -105.421875 C 31.382812 -107.378906 36.875 -108.359375 42.6875 -108.359375 Z M 42.6875 -108.359375 "/></g></g></g><g fill="#8f7733" fill-opacity="1"><g transform="translate(806.054075, 785.511704)"><g><path d="M 42.375 -79.796875 C 49.6875 -79.796875 56.097656 -78.441406 61.609375 -75.734375 C 67.117188 -73.035156 71.425781 -68.679688 74.53125 -62.671875 C 77.644531 -56.660156 79.203125 -48.691406 79.203125 -38.765625 C 79.203125 -28.847656 77.644531 -20.910156 74.53125 -14.953125 C 71.425781 -8.992188 67.117188 -4.660156 61.609375 -1.953125 C 56.097656 0.753906 49.6875 2.109375 42.375 2.109375 C 35.257812 2.109375 28.921875 0.753906 23.359375 -1.953125 C 17.804688 -4.660156 13.453125 -8.992188 10.296875 -14.953125 C 7.140625 -20.910156 5.5625 -28.847656 5.5625 -38.765625 C 5.5625 -48.691406 7.140625 -56.660156 10.296875 -62.671875 C 13.453125 -68.679688 17.804688 -73.035156 23.359375 -75.734375 C 28.921875 -78.441406 35.257812 -79.796875 42.375 -79.796875 Z M 42.375 -76.796875 C 38.375 -76.796875 35.019531 -73.8125 32.3125 -67.84375 C 29.601562 -61.882812 28.25 -52.191406 28.25 -38.765625 C 28.25 -25.347656 29.601562 -15.679688 32.3125 -9.765625 C 35.019531 -3.859375 38.375 -0.90625 42.375 -0.90625 C 46.488281 -0.90625 49.867188 -3.859375 52.515625 -9.765625 C 55.171875 -15.679688 56.5 -25.347656 56.5 -38.765625 C 56.5 -52.191406 55.171875 -61.882812 52.515625 -67.84375 C 49.867188 -73.8125 46.488281 -76.796875 42.375 -76.796875 Z M 42.375 -76.796875 "/></g></g></g><g fill="#8f7733" fill-opacity="1"><g transform="translate(889.460154, 785.511704)"><g><path d="M 34.265625 -117.671875 L 34.265625 -13.96875 C 34.265625 -9.769531 34.988281 -6.914062 36.4375 -5.40625 C 37.894531 -3.90625 40.375 -3.15625 43.875 -3.15625 L 43.875 0 C 41.976562 -0.101562 39.125 -0.226562 35.3125 -0.375 C 31.507812 -0.519531 27.65625 -0.59375 23.75 -0.59375 C 19.84375 -0.59375 15.910156 -0.519531 11.953125 -0.375 C 7.992188 -0.226562 5.007812 -0.101562 3 0 L 3 -3.15625 C 6.507812 -3.15625 8.988281 -3.90625 10.4375 -5.40625 C 11.894531 -6.914062 12.625 -9.769531 12.625 -13.96875 L 12.625 -99.640625 C 12.625 -104.148438 11.945312 -107.476562 10.59375 -109.625 C 9.238281 -111.78125 6.707031 -112.859375 3 -112.859375 L 3 -116.015625 C 6.207031 -115.710938 9.316406 -115.5625 12.328125 -115.5625 C 16.429688 -115.5625 20.335938 -115.738281 24.046875 -116.09375 C 27.753906 -116.445312 31.160156 -116.972656 34.265625 -117.671875 Z M 34.265625 -117.671875 "/></g></g></g><g fill="#8f7733" fill-opacity="1"><g transform="translate(936.19765, 785.511704)"><g><path d="M 78.453125 -79.34375 L 78.453125 -16.375 C 78.453125 -11.875 79.148438 -8.546875 80.546875 -6.390625 C 81.953125 -4.234375 84.457031 -3.15625 88.0625 -3.15625 L 88.0625 0 C 84.957031 -0.300781 81.851562 -0.453125 78.75 -0.453125 C 74.539062 -0.453125 70.628906 -0.300781 67.015625 0 C 63.410156 0.300781 60.007812 0.851562 56.8125 1.65625 L 56.8125 -11.875 C 54.40625 -6.863281 51.070312 -3.28125 46.8125 -1.125 C 42.550781 1.03125 37.816406 2.109375 32.609375 2.109375 C 28.398438 2.109375 24.992188 1.554688 22.390625 0.453125 C 19.785156 -0.648438 17.734375 -2.050781 16.234375 -3.75 C 14.523438 -5.65625 13.320312 -8.160156 12.625 -11.265625 C 11.925781 -14.378906 11.578125 -18.390625 11.578125 -23.296875 L 11.578125 -61.3125 C 11.578125 -65.820312 10.898438 -69.15625 9.546875 -71.3125 C 8.191406 -73.46875 5.660156 -74.546875 1.953125 -74.546875 L 1.953125 -77.703125 C 5.160156 -77.398438 8.265625 -77.25 11.265625 -77.25 C 15.472656 -77.25 19.40625 -77.421875 23.0625 -77.765625 C 26.71875 -78.117188 30.101562 -78.644531 33.21875 -79.34375 L 33.21875 -17.125 C 33.21875 -14.625 33.441406 -12.421875 33.890625 -10.515625 C 34.335938 -8.617188 35.210938 -7.144531 36.515625 -6.09375 C 37.816406 -5.039062 39.722656 -4.515625 42.234375 -4.515625 C 44.929688 -4.515625 47.359375 -5.265625 49.515625 -6.765625 C 51.671875 -8.265625 53.425781 -10.34375 54.78125 -13 C 56.132812 -15.65625 56.8125 -18.632812 56.8125 -21.9375 L 56.8125 -61.3125 C 56.8125 -65.820312 56.132812 -69.15625 54.78125 -71.3125 C 53.425781 -73.46875 50.894531 -74.546875 47.1875 -74.546875 L 47.1875 -77.703125 C 50.394531 -77.398438 53.5 -77.25 56.5 -77.25 C 60.707031 -77.25 64.640625 -77.421875 68.296875 -77.765625 C 71.953125 -78.117188 75.335938 -78.644531 78.453125 -79.34375 Z M 78.453125 -79.34375 "/></g></g></g><g fill="#8f7733" fill-opacity="1"><g transform="translate(1027.2681, 785.511704)"><g><path d="M 34.109375 -102.34375 L 34.109375 -77.703125 L 51.84375 -77.703125 L 51.84375 -74.6875 L 34.109375 -74.6875 L 34.109375 -13.96875 C 34.109375 -10.96875 34.660156 -8.835938 35.765625 -7.578125 C 36.867188 -6.328125 38.519531 -5.703125 40.71875 -5.703125 C 42.53125 -5.703125 44.335938 -6.378906 46.140625 -7.734375 C 47.941406 -9.085938 49.546875 -11.421875 50.953125 -14.734375 L 53.5 -13.375 C 51.894531 -8.863281 49.460938 -5.15625 46.203125 -2.25 C 42.953125 0.65625 38.519531 2.109375 32.90625 2.109375 C 29.601562 2.109375 26.695312 1.679688 24.1875 0.828125 C 21.6875 -0.0234375 19.585938 -1.300781 17.890625 -3 C 15.679688 -5.207031 14.222656 -7.9375 13.515625 -11.1875 C 12.816406 -14.445312 12.46875 -18.679688 12.46875 -23.890625 L 12.46875 -74.6875 L -0.15625 -74.6875 L -0.15625 -77.703125 L 12.46875 -77.703125 L 12.46875 -97.53125 C 16.675781 -97.53125 20.554688 -97.90625 24.109375 -98.65625 C 27.671875 -99.40625 31.003906 -100.632812 34.109375 -102.34375 Z M 34.109375 -102.34375 "/></g></g></g><g fill="#8f7733" fill-opacity="1"><g transform="translate(1080.167105, 785.511704)"><g><path d="M 23.140625 -116.46875 C 27.347656 -116.46875 30.675781 -115.441406 33.125 -113.390625 C 35.582031 -111.335938 36.8125 -108.503906 36.8125 -104.890625 C 36.8125 -101.285156 35.582031 -98.457031 33.125 -96.40625 C 30.675781 -94.351562 27.347656 -93.328125 23.140625 -93.328125 C 18.929688 -93.328125 15.597656 -94.351562 13.140625 -96.40625 C 10.691406 -98.457031 9.46875 -101.285156 9.46875 -104.890625 C 9.46875 -108.503906 10.691406 -111.335938 13.140625 -113.390625 C 15.597656 -115.441406 18.929688 -116.46875 23.140625 -116.46875 Z M 34.859375 -79.34375 L 34.859375 -13.96875 C 34.859375 -9.769531 35.582031 -6.914062 37.03125 -5.40625 C 38.488281 -3.90625 40.972656 -3.15625 44.484375 -3.15625 L 44.484375 0 C 42.679688 -0.101562 39.875 -0.226562 36.0625 -0.375 C 32.257812 -0.519531 28.40625 -0.59375 24.5 -0.59375 C 20.59375 -0.59375 16.632812 -0.519531 12.625 -0.375 C 8.613281 -0.226562 5.609375 -0.101562 3.609375 0 L 3.609375 -3.15625 C 7.109375 -3.15625 9.582031 -3.90625 11.03125 -5.40625 C 12.488281 -6.914062 13.21875 -9.769531 13.21875 -13.96875 L 13.21875 -61.3125 C 13.21875 -65.820312 12.539062 -69.15625 11.1875 -71.3125 C 9.84375 -73.46875 7.316406 -74.546875 3.609375 -74.546875 L 3.609375 -77.703125 C 6.816406 -77.398438 9.921875 -77.25 12.921875 -77.25 C 17.128906 -77.25 21.0625 -77.421875 24.71875 -77.765625 C 28.375 -78.117188 31.753906 -78.644531 34.859375 -79.34375 Z M 34.859375 -79.34375 "/></g></g></g><g fill="#8f7733" fill-opacity="1"><g transform="translate(1127.505724, 785.511704)"><g><path d="M 42.375 -79.796875 C 49.6875 -79.796875 56.097656 -78.441406 61.609375 -75.734375 C 67.117188 -73.035156 71.425781 -68.679688 74.53125 -62.671875 C 77.644531 -56.660156 79.203125 -48.691406 79.203125 -38.765625 C 79.203125 -28.847656 77.644531 -20.910156 74.53125 -14.953125 C 71.425781 -8.992188 67.117188 -4.660156 61.609375 -1.953125 C 56.097656 0.753906 49.6875 2.109375 42.375 2.109375 C 35.257812 2.109375 28.921875 0.753906 23.359375 -1.953125 C 17.804688 -4.660156 13.453125 -8.992188 10.296875 -14.953125 C 7.140625 -20.910156 5.5625 -28.847656 5.5625 -38.765625 C 5.5625 -48.691406 7.140625 -56.660156 10.296875 -62.671875 C 13.453125 -68.679688 17.804688 -73.035156 23.359375 -75.734375 C 28.921875 -78.441406 35.257812 -79.796875 42.375 -79.796875 Z M 42.375 -76.796875 C 38.375 -76.796875 35.019531 -73.8125 32.3125 -67.84375 C 29.601562 -61.882812 28.25 -52.191406 28.25 -38.765625 C 28.25 -25.347656 29.601562 -15.679688 32.3125 -9.765625 C 35.019531 -3.859375 38.375 -0.90625 42.375 -0.90625 C 46.488281 -0.90625 49.867188 -3.859375 52.515625 -9.765625 C 55.171875 -15.679688 56.5 -25.347656 56.5 -38.765625 C 56.5 -52.191406 55.171875 -61.882812 52.515625 -67.84375 C 49.867188 -73.8125 46.488281 -76.796875 42.375 -76.796875 Z M 42.375 -76.796875 "/></g></g></g><g fill="#8f7733" fill-opacity="1"><g transform="translate(1212.414652, 785.511704)"><g><path d="M 59.515625 -79.796875 C 63.722656 -79.796875 67.148438 -79.269531 69.796875 -78.21875 C 72.453125 -77.164062 74.535156 -75.738281 76.046875 -73.9375 C 77.648438 -72.03125 78.828125 -69.570312 79.578125 -66.5625 C 80.328125 -63.5625 80.703125 -59.507812 80.703125 -54.40625 L 80.703125 -13.96875 C 80.703125 -9.769531 81.425781 -6.914062 82.875 -5.40625 C 84.332031 -3.90625 86.8125 -3.15625 90.3125 -3.15625 L 90.3125 0 C 88.414062 -0.101562 85.5625 -0.226562 81.75 -0.375 C 77.945312 -0.519531 74.191406 -0.59375 70.484375 -0.59375 C 66.671875 -0.59375 62.9375 -0.519531 59.28125 -0.375 C 55.625 -0.226562 52.847656 -0.101562 50.953125 0 L 50.953125 -3.15625 C 53.953125 -3.15625 56.050781 -3.90625 57.25 -5.40625 C 58.457031 -6.914062 59.0625 -9.769531 59.0625 -13.96875 L 59.0625 -60.71875 C 59.0625 -63.21875 58.8125 -65.394531 58.3125 -67.25 C 57.8125 -69.101562 56.910156 -70.554688 55.609375 -71.609375 C 54.304688 -72.660156 52.351562 -73.1875 49.75 -73.1875 C 47.039062 -73.1875 44.554688 -72.429688 42.296875 -70.921875 C 40.046875 -69.421875 38.242188 -67.34375 36.890625 -64.6875 C 35.535156 -62.039062 34.859375 -59.0625 34.859375 -55.75 L 34.859375 -13.96875 C 34.859375 -9.769531 35.484375 -6.914062 36.734375 -5.40625 C 37.992188 -3.90625 40.078125 -3.15625 42.984375 -3.15625 L 42.984375 0 C 41.179688 -0.101562 38.550781 -0.226562 35.09375 -0.375 C 31.632812 -0.519531 28.050781 -0.59375 24.34375 -0.59375 C 20.539062 -0.59375 16.632812 -0.519531 12.625 -0.375 C 8.613281 -0.226562 5.609375 -0.101562 3.609375 0 L 3.609375 -3.15625 C 7.109375 -3.15625 9.582031 -3.90625 11.03125 -5.40625 C 12.488281 -6.914062 13.21875 -9.769531 13.21875 -13.96875 L 13.21875 -61.3125 C 13.21875 -65.820312 12.539062 -69.15625 11.1875 -71.3125 C 9.84375 -73.46875 7.316406 -74.546875 3.609375 -74.546875 L 3.609375 -77.703125 C 6.816406 -77.398438 9.921875 -77.25 12.921875 -77.25 C 17.128906 -77.25 21.0625 -77.421875 24.71875 -77.765625 C 28.375 -78.117188 31.753906 -78.644531 34.859375 -79.34375 L 34.859375 -65.828125 C 37.367188 -70.929688 40.773438 -74.535156 45.078125 -76.640625 C 49.390625 -78.742188 54.203125 -79.796875 59.515625 -79.796875 Z M 59.515625 -79.796875 "/></g></g></g><g fill="#8f7733" fill-opacity="1"><g transform="translate(1304.687394, 785.511704)"><g><path d="M 33.359375 -79.796875 C 37.566406 -79.796875 41.25 -79.269531 44.40625 -78.21875 C 47.5625 -77.164062 49.84375 -76.140625 51.25 -75.140625 C 54.65625 -72.835938 56.757812 -74.34375 57.5625 -79.65625 L 60.71875 -79.65625 C 60.507812 -76.84375 60.351562 -73.40625 60.25 -69.34375 C 60.15625 -65.289062 60.109375 -59.910156 60.109375 -53.203125 L 56.953125 -53.203125 C 56.453125 -56.910156 55.5 -60.566406 54.09375 -64.171875 C 52.695312 -67.773438 50.671875 -70.726562 48.015625 -73.03125 C 45.359375 -75.34375 41.925781 -76.5 37.71875 -76.5 C 34.8125 -76.5 32.351562 -75.671875 30.34375 -74.015625 C 28.34375 -72.359375 27.34375 -69.976562 27.34375 -66.875 C 27.34375 -63.863281 28.242188 -61.234375 30.046875 -58.984375 C 31.859375 -56.734375 34.191406 -54.578125 37.046875 -52.515625 C 39.898438 -50.460938 42.878906 -48.285156 45.984375 -45.984375 C 49.296875 -43.484375 52.300781 -41.003906 55 -38.546875 C 57.707031 -36.085938 59.863281 -33.40625 61.46875 -30.5 C 63.070312 -27.601562 63.875 -24.148438 63.875 -20.140625 C 63.875 -15.628906 62.570312 -11.695312 59.96875 -8.34375 C 57.363281 -4.988281 53.929688 -2.40625 49.671875 -0.59375 C 45.410156 1.207031 40.675781 2.109375 35.46875 2.109375 C 32.457031 2.109375 29.773438 1.804688 27.421875 1.203125 C 25.066406 0.597656 23.039062 -0.148438 21.34375 -1.046875 C 20.039062 -1.648438 18.8125 -2.226562 17.65625 -2.78125 C 16.507812 -3.332031 15.429688 -3.804688 14.421875 -4.203125 C 13.421875 -4.503906 12.546875 -4.15625 11.796875 -3.15625 C 11.046875 -2.15625 10.46875 -0.753906 10.0625 1.046875 L 6.90625 1.046875 C 7.113281 -2.148438 7.265625 -6.050781 7.359375 -10.65625 C 7.460938 -15.269531 7.515625 -21.382812 7.515625 -29 L 10.671875 -29 C 11.273438 -23.59375 12.375 -18.8125 13.96875 -14.65625 C 15.570312 -10.5 17.75 -7.242188 20.5 -4.890625 C 23.257812 -2.535156 26.742188 -1.359375 30.953125 -1.359375 C 32.660156 -1.359375 34.316406 -1.707031 35.921875 -2.40625 C 37.523438 -3.101562 38.851562 -4.253906 39.90625 -5.859375 C 40.957031 -7.460938 41.484375 -9.515625 41.484375 -12.015625 C 41.484375 -16.429688 40.050781 -20.085938 37.1875 -22.984375 C 34.332031 -25.890625 30.703125 -29.046875 26.296875 -32.453125 C 23.085938 -35.066406 20.054688 -37.648438 17.203125 -40.203125 C 14.347656 -42.753906 12.019531 -45.554688 10.21875 -48.609375 C 8.414062 -51.671875 7.515625 -55.15625 7.515625 -59.0625 C 7.515625 -63.570312 8.71875 -67.378906 11.125 -70.484375 C 13.53125 -73.585938 16.707031 -75.914062 20.65625 -77.46875 C 24.613281 -79.019531 28.847656 -79.796875 33.359375 -79.796875 Z M 33.359375 -79.796875 "/></g></g></g><g fill="#8f7733" fill-opacity="1"><g transform="translate(348.837954, 882.102552)"><g><path d="M 5.9375 0 L 5.9375 -61.125 L 29.546875 -61.125 C 30.140625 -61.125 30.8125 -61.101562 31.5625 -61.0625 C 32.3125 -61.019531 33.066406 -60.925781 33.828125 -60.78125 C 37.023438 -60.300781 39.734375 -59.191406 41.953125 -57.453125 C 44.179688 -55.710938 45.867188 -53.523438 47.015625 -50.890625 C 48.160156 -48.253906 48.734375 -45.335938 48.734375 -42.140625 C 48.734375 -38.972656 48.148438 -36.070312 46.984375 -33.4375 C 45.828125 -30.8125 44.132812 -28.628906 41.90625 -26.890625 C 39.6875 -25.148438 36.992188 -24.039062 33.828125 -23.5625 C 33.066406 -23.445312 32.3125 -23.359375 31.5625 -23.296875 C 30.8125 -23.242188 30.140625 -23.21875 29.546875 -23.21875 L 12.1875 -23.21875 L 12.1875 0 Z M 12.1875 -29.15625 L 29.375 -29.15625 C 29.882812 -29.15625 30.476562 -29.179688 31.15625 -29.234375 C 31.832031 -29.296875 32.5 -29.398438 33.15625 -29.546875 C 35.25 -29.992188 36.96875 -30.851562 38.3125 -32.125 C 39.65625 -33.40625 40.65625 -34.921875 41.3125 -36.671875 C 41.976562 -38.421875 42.3125 -40.242188 42.3125 -42.140625 C 42.3125 -44.035156 41.976562 -45.867188 41.3125 -47.640625 C 40.65625 -49.410156 39.65625 -50.929688 38.3125 -52.203125 C 36.96875 -53.484375 35.25 -54.347656 33.15625 -54.796875 C 32.5 -54.941406 31.832031 -55.035156 31.15625 -55.078125 C 30.476562 -55.117188 29.882812 -55.140625 29.375 -55.140625 L 12.1875 -55.140625 Z M 12.1875 -29.15625 "/></g></g></g><g fill="#8f7733" fill-opacity="1"><g transform="translate(407.582806, 882.102552)"><g><path d="M 5.9375 0 L 5.9375 -61.125 L 29.546875 -61.125 C 30.140625 -61.125 30.8125 -61.101562 31.5625 -61.0625 C 32.3125 -61.019531 33.066406 -60.925781 33.828125 -60.78125 C 37.023438 -60.300781 39.734375 -59.191406 41.953125 -57.453125 C 44.179688 -55.710938 45.867188 -53.523438 47.015625 -50.890625 C 48.160156 -48.253906 48.734375 -45.335938 48.734375 -42.140625 C 48.734375 -37.535156 47.515625 -33.535156 45.078125 -30.140625 C 42.640625 -26.742188 39.160156 -24.609375 34.640625 -23.734375 L 32.46875 -23.21875 L 12.1875 -23.21875 L 12.1875 0 Z M 42.953125 0 L 30.90625 -24.875 L 36.890625 -27.171875 L 50.125 0 Z M 12.1875 -29.15625 L 29.375 -29.15625 C 29.882812 -29.15625 30.476562 -29.179688 31.15625 -29.234375 C 31.832031 -29.296875 32.5 -29.398438 33.15625 -29.546875 C 35.25 -29.992188 36.96875 -30.851562 38.3125 -32.125 C 39.65625 -33.40625 40.65625 -34.921875 41.3125 -36.671875 C 41.976562 -38.421875 42.3125 -40.242188 42.3125 -42.140625 C 42.3125 -44.035156 41.976562 -45.867188 41.3125 -47.640625 C 40.65625 -49.410156 39.65625 -50.929688 38.3125 -52.203125 C 36.96875 -53.484375 35.25 -54.347656 33.15625 -54.796875 C 32.5 -54.941406 31.832031 -55.035156 31.15625 -55.078125 C 30.476562 -55.117188 29.882812 -55.140625 29.375 -55.140625 L 12.1875 -55.140625 Z M 12.1875 -29.15625 "/></g></g></g><g fill="#8f7733" fill-opacity="1"><g transform="translate(468.577247, 882.102552)"><g><path d="M 30.6875 1.265625 C 24.601562 1.265625 19.46875 -0.0820312 15.28125 -2.78125 C 11.09375 -5.476562 7.921875 -9.21875 5.765625 -14 C 3.617188 -18.789062 2.546875 -24.3125 2.546875 -30.5625 C 2.546875 -36.8125 3.617188 -42.328125 5.765625 -47.109375 C 7.921875 -51.890625 11.09375 -55.628906 15.28125 -58.328125 C 19.46875 -61.035156 24.601562 -62.390625 30.6875 -62.390625 C 36.800781 -62.390625 41.941406 -61.035156 46.109375 -58.328125 C 50.285156 -55.628906 53.457031 -51.890625 55.625 -47.109375 C 57.789062 -42.328125 58.875 -36.8125 58.875 -30.5625 C 58.875 -24.3125 57.789062 -18.789062 55.625 -14 C 53.457031 -9.21875 50.285156 -5.476562 46.109375 -2.78125 C 41.941406 -0.0820312 36.800781 1.265625 30.6875 1.265625 Z M 30.6875 -4.71875 C 35.46875 -4.71875 39.457031 -5.804688 42.65625 -7.984375 C 45.851562 -10.160156 48.25 -13.191406 49.84375 -17.078125 C 51.445312 -20.972656 52.25 -25.46875 52.25 -30.5625 C 52.25 -35.65625 51.445312 -40.140625 49.84375 -44.015625 C 48.25 -47.890625 45.851562 -50.914062 42.65625 -53.09375 C 39.457031 -55.28125 35.46875 -56.382812 30.6875 -56.40625 C 25.90625 -56.40625 21.925781 -55.316406 18.75 -53.140625 C 15.582031 -50.960938 13.195312 -47.925781 11.59375 -44.03125 C 10 -40.144531 9.191406 -35.65625 9.171875 -30.5625 C 9.140625 -25.46875 9.921875 -20.988281 11.515625 -17.125 C 13.117188 -13.257812 15.519531 -10.226562 18.71875 -8.03125 C 21.914062 -5.84375 25.90625 -4.738281 30.6875 -4.71875 Z M 30.6875 -4.71875 "/></g></g></g><g fill="#8f7733" fill-opacity="1"><g transform="translate(537.466508, 882.102552)"><g><path d="M 5.9375 0 L 5.9375 -61.125 L 29.546875 -61.125 C 30.140625 -61.125 30.8125 -61.101562 31.5625 -61.0625 C 32.3125 -61.019531 33.066406 -60.925781 33.828125 -60.78125 C 37.023438 -60.300781 39.734375 -59.191406 41.953125 -57.453125 C 44.179688 -55.710938 45.867188 -53.523438 47.015625 -50.890625 C 48.160156 -48.253906 48.734375 -45.335938 48.734375 -42.140625 C 48.734375 -38.972656 48.148438 -36.070312 46.984375 -33.4375 C 45.828125 -30.8125 44.132812 -28.628906 41.90625 -26.890625 C 39.6875 -25.148438 36.992188 -24.039062 33.828125 -23.5625 C 33.066406 -23.445312 32.3125 -23.359375 31.5625 -23.296875 C 30.8125 -23.242188 30.140625 -23.21875 29.546875 -23.21875 L 12.1875 -23.21875 L 12.1875 0 Z M 12.1875 -29.15625 L 29.375 -29.15625 C 29.882812 -29.15625 30.476562 -29.179688 31.15625 -29.234375 C 31.832031 -29.296875 32.5 -29.398438 33.15625 -29.546875 C 35.25 -29.992188 36.96875 -30.851562 38.3125 -32.125 C 39.65625 -33.40625 40.65625 -34.921875 41.3125 -36.671875 C 41.976562 -38.421875 42.3125 -40.242188 42.3125 -42.140625 C 42.3125 -44.035156 41.976562 -45.867188 41.3125 -47.640625 C 40.65625 -49.410156 39.65625 -50.929688 38.3125 -52.203125 C 36.96875 -53.484375 35.25 -54.347656 33.15625 -54.796875 C 32.5 -54.941406 31.832031 -55.035156 31.15625 -55.078125 C 30.476562 -55.117188 29.882812 -55.140625 29.375 -55.140625 L 12.1875 -55.140625 Z M 12.1875 -29.15625 "/></g></g></g><g fill="#8f7733" fill-opacity="1"><g transform="translate(596.211361, 882.102552)"><g><path d="M 5.9375 0 L 5.9375 -61.125 L 44.140625 -61.125 L 44.140625 -55.140625 L 12.1875 -55.140625 L 12.1875 -34 L 39.046875 -34 L 39.046875 -28.015625 L 12.1875 -28.015625 L 12.1875 -5.984375 L 44.140625 -5.984375 L 44.140625 0 Z M 5.9375 0 "/></g></g></g><g fill="#8f7733" fill-opacity="1"><g transform="translate(652.069922, 882.102552)"><g><path d="M 5.9375 0 L 5.9375 -61.125 L 29.546875 -61.125 C 30.140625 -61.125 30.8125 -61.101562 31.5625 -61.0625 C 32.3125 -61.019531 33.066406 -60.925781 33.828125 -60.78125 C 37.023438 -60.300781 39.734375 -59.191406 41.953125 -57.453125 C 44.179688 -55.710938 45.867188 -53.523438 47.015625 -50.890625 C 48.160156 -48.253906 48.734375 -45.335938 48.734375 -42.140625 C 48.734375 -37.535156 47.515625 -33.535156 45.078125 -30.140625 C 42.640625 -26.742188 39.160156 -24.609375 34.640625 -23.734375 L 32.46875 -23.21875 L 12.1875 -23.21875 L 12.1875 0 Z M 42.953125 0 L 30.90625 -24.875 L 36.890625 -27.171875 L 50.125 0 Z M 12.1875 -29.15625 L 29.375 -29.15625 C 29.882812 -29.15625 30.476562 -29.179688 31.15625 -29.234375 C 31.832031 -29.296875 32.5 -29.398438 33.15625 -29.546875 C 35.25 -29.992188 36.96875 -30.851562 38.3125 -32.125 C 39.65625 -33.40625 40.65625 -34.921875 41.3125 -36.671875 C 41.976562 -38.421875 42.3125 -40.242188 42.3125 -42.140625 C 42.3125 -44.035156 41.976562 -45.867188 41.3125 -47.640625 C 40.65625 -49.410156 39.65625 -50.929688 38.3125 -52.203125 C 36.96875 -53.484375 35.25 -54.347656 33.15625 -54.796875 C 32.5 -54.941406 31.832031 -55.035156 31.15625 -55.078125 C 30.476562 -55.117188 29.882812 -55.140625 29.375 -55.140625 L 12.1875 -55.140625 Z M 12.1875 -29.15625 "/></g></g></g><g fill="#8f7733" fill-opacity="1"><g transform="translate(713.064363, 882.102552)"><g><path d="M 22.203125 0 L 22.203125 -55.140625 L 0.84375 -55.140625 L 0.84375 -61.125 L 49.78125 -61.125 L 49.78125 -55.140625 L 28.4375 -55.140625 L 28.4375 0 Z M 22.203125 0 "/></g></g></g><g fill="#8f7733" fill-opacity="1"><g transform="translate(771.172558, 882.102552)"><g><path d="M 20.5 0 L 20.5 -25.59375 L 0 -61.125 L 7.21875 -61.125 L 23.640625 -32.71875 L 39.984375 -61.125 L 47.203125 -61.125 L 26.78125 -25.59375 L 26.78125 0 Z M 20.5 0 "/></g></g></g><g fill="#8f7733" fill-opacity="1"><g transform="translate(825.842674, 882.102552)"><g/></g></g><g fill="#8f7733" fill-opacity="1"><g transform="translate(850.291738, 882.102552)"><g><path d="M 5.9375 0 L 5.9375 -61.125 L 11.671875 -61.125 L 35.703125 -9.71875 L 59.59375 -61.125 L 65.40625 -61.125 L 65.40625 -0.046875 L 59.46875 -0.046875 L 59.46875 -47.203125 L 37.6875 0 L 33.65625 0 L 11.921875 -47.203125 L 11.921875 0 Z M 5.9375 0 "/></g></g></g><g fill="#8f7733" fill-opacity="1"><g transform="translate(929.113188, 882.102552)"><g><path d="M 1.703125 0 L 22.75 -61.125 L 31.03125 -61.125 L 52.078125 0 L 45.59375 0 L 25.59375 -57.640625 L 28.0625 -57.640625 L 8.1875 0 Z M 11.078125 -14.8125 L 11.078125 -20.671875 L 42.65625 -20.671875 L 42.65625 -14.8125 Z M 11.078125 -14.8125 "/></g></g></g><g fill="#8f7733" fill-opacity="1"><g transform="translate(990.362328, 882.102552)"><g><path d="M 5.9375 0 L 5.9375 -61.125 L 29.546875 -61.125 C 30.140625 -61.125 30.8125 -61.101562 31.5625 -61.0625 C 32.3125 -61.019531 33.066406 -60.925781 33.828125 -60.78125 C 37.023438 -60.300781 39.734375 -59.191406 41.953125 -57.453125 C 44.179688 -55.710938 45.867188 -53.523438 47.015625 -50.890625 C 48.160156 -48.253906 48.734375 -45.335938 48.734375 -42.140625 C 48.734375 -37.535156 47.515625 -33.535156 45.078125 -30.140625 C 42.640625 -26.742188 39.160156 -24.609375 34.640625 -23.734375 L 32.46875 -23.21875 L 12.1875 -23.21875 L 12.1875 0 Z M 42.953125 0 L 30.90625 -24.875 L 36.890625 -27.171875 L 50.125 0 Z M 12.1875 -29.15625 L 29.375 -29.15625 C 29.882812 -29.15625 30.476562 -29.179688 31.15625 -29.234375 C 31.832031 -29.296875 32.5 -29.398438 33.15625 -29.546875 C 35.25 -29.992188 36.96875 -30.851562 38.3125 -32.125 C 39.65625 -33.40625 40.65625 -34.921875 41.3125 -36.671875 C 41.976562 -38.421875 42.3125 -40.242188 42.3125 -42.140625 C 42.3125 -44.035156 41.976562 -45.867188 41.3125 -47.640625 C 40.65625 -49.410156 39.65625 -50.929688 38.3125 -52.203125 C 36.96875 -53.484375 35.25 -54.347656 33.15625 -54.796875 C 32.5 -54.941406 31.832031 -55.035156 31.15625 -55.078125 C 30.476562 -55.117188 29.882812 -55.140625 29.375 -55.140625 L 12.1875 -55.140625 Z M 12.1875 -29.15625 "/></g></g></g><g fill="#8f7733" fill-opacity="1"><g transform="translate(1051.356769, 882.102552)"><g><path d="M 5.9375 0 L 5.9375 -61.125 L 12.1875 -61.125 L 12.1875 -32.265625 L 40.0625 -61.125 L 48.046875 -61.125 L 19.5625 -31.625 L 50.375 0 L 42.234375 0 L 12.1875 -30.5625 L 12.1875 0 Z M 5.9375 0 "/></g></g></g><g fill="#8f7733" fill-opacity="1"><g transform="translate(1109.210264, 882.102552)"><g><path d="M 5.9375 0 L 5.9375 -61.125 L 44.140625 -61.125 L 44.140625 -55.140625 L 12.1875 -55.140625 L 12.1875 -34 L 39.046875 -34 L 39.046875 -28.015625 L 12.1875 -28.015625 L 12.1875 -5.984375 L 44.140625 -5.984375 L 44.140625 0 Z M 5.9375 0 "/></g></g></g><g fill="#8f7733" fill-opacity="1"><g transform="translate(1165.068779, 882.102552)"><g><path d="M 22.203125 0 L 22.203125 -55.140625 L 0.84375 -55.140625 L 0.84375 -61.125 L 49.78125 -61.125 L 49.78125 -55.140625 L 28.4375 -55.140625 L 28.4375 0 Z M 22.203125 0 "/></g></g></g><g fill="#8f7733" fill-opacity="1"><g transform="translate(1223.17702, 882.102552)"><g><path d="M 6.796875 0 L 6.796875 -61.125 L 13.03125 -61.125 L 13.03125 0 Z M 6.796875 0 "/></g></g></g><g fill="#8f7733" fill-opacity="1"><g transform="translate(1250.469895, 882.102552)"><g><path d="M 5.9375 0 L 5.9375 -61.125 L 12.21875 -61.125 L 45.890625 -11.03125 L 45.890625 -61.125 L 52.171875 -61.125 L 52.171875 0 L 45.890625 0 L 12.21875 -50.125 L 12.21875 0 Z M 5.9375 0 "/></g></g></g><g fill="#8f7733" fill-opacity="1"><g transform="translate(1316.048472, 882.102552)"><g><path d="M 30.4375 1.265625 C 26.132812 1.265625 22.253906 0.519531 18.796875 -0.96875 C 15.347656 -2.46875 12.410156 -4.601562 9.984375 -7.375 C 7.566406 -10.15625 5.722656 -13.503906 4.453125 -17.421875 C 3.179688 -21.335938 2.546875 -25.71875 2.546875 -30.5625 C 2.546875 -36.957031 3.65625 -42.535156 5.875 -47.296875 C 8.09375 -52.066406 11.28125 -55.769531 15.4375 -58.40625 C 19.601562 -61.039062 24.601562 -62.359375 30.4375 -62.359375 C 36.945312 -62.359375 42.242188 -60.832031 46.328125 -57.78125 C 50.421875 -54.738281 53.269531 -50.660156 54.875 -45.546875 L 48.59375 -44.015625 C 47.269531 -47.753906 45.085938 -50.738281 42.046875 -52.96875 C 39.003906 -55.207031 35.21875 -56.328125 30.6875 -56.328125 C 25.90625 -56.359375 21.925781 -55.289062 18.75 -53.125 C 15.582031 -50.957031 13.195312 -47.925781 11.59375 -44.03125 C 10 -40.144531 9.191406 -35.65625 9.171875 -30.5625 C 9.140625 -25.46875 9.921875 -20.988281 11.515625 -17.125 C 13.117188 -13.257812 15.519531 -10.226562 18.71875 -8.03125 C 21.914062 -5.84375 25.90625 -4.738281 30.6875 -4.71875 C 35.070312 -4.71875 38.691406 -5.566406 41.546875 -7.265625 C 44.410156 -8.960938 46.582031 -11.394531 48.0625 -14.5625 C 49.550781 -17.726562 50.394531 -21.476562 50.59375 -25.8125 L 36.5 -25.8125 L 36.5 -31.15625 L 57.125 -31.15625 C 57.21875 -30.5 57.269531 -29.8125 57.28125 -29.09375 C 57.289062 -28.375 57.296875 -27.859375 57.296875 -27.546875 C 57.296875 -22.023438 56.304688 -17.09375 54.328125 -12.75 C 52.347656 -8.40625 49.367188 -4.984375 45.390625 -2.484375 C 41.421875 0.015625 36.4375 1.265625 30.4375 1.265625 Z M 30.4375 1.265625 "/></g></g></g></svg>